<svg width="73.986" height="59.999" viewBox="0 0 19.576 15.875" xmlns="http://www.w3.org/2000/svg"><path d="m4.863 4.983.079-.137.014-.016 1.004-.742.392-.279c.338-.158.682-.307 1.058-.474l.675-.13v-.001c.14-.004-2.146-.946-2.146-.946L5.464.97s-.585.255-1.137.597c-.301.187-.445.289-.494.39l-.019.009-.355.237a.686.686 0 0 0-.152.101c-.063.055-.107.12-.169.175v.008c-.475.563-1.658 2.097-1.94 2.652-.034.066-.129.143-.105.22l-.227.48c-.077.194-.116.392-.177.587l2.283-.855zM3.57 6.57.16 7.855c-.077.404-.134.81-.158 1.216 0 .127.008.23-.002.333-.002.018.009.02.009.036l.01.476c0 .016-.009.02-.007.038 0 .02.007.04.008.06v.042h.006c.099.988.365 1.929.798 2.82l1.594-.775.677-1.2-.076-1.034.015-.496.003-.066c.003-.022.018-.03.019-.057.01-.507.11-1.002.28-1.487l.443-.684.213-.373-.242-.098zM12.539 3.524v.002l.534.255c.015.01.015.02.032.028.016.008.021-.001.036.004l.051.024.469.284.988 1.006 2.32-1.965-.065-.08a9.001 9.001 0 0 0-1.718-1.484l-.434-.258c-.028-.026-.067-.045-.102-.065-.016-.008-.032-.014-.047-.023l-.041-.024-.002.004a8.965 8.965 0 0 0-2.126-.815l-.427.444-.15 1.333-.109.638-.093.407c.226.048.448.106.655.197.08.036.156.065.229.088M16.043 7.429c.03.116.051.227.073.339l.073.608.002.02c0 .008.003.012.003.02l.011.094-.038.488.029.06 1.425.085 1.62-.829-.002-.054-.002-.025a1.157 1.157 0 0 0-.017-.141l-.1-.845-.006-.006c-.003-.025.002-.045-.004-.073a8.149 8.149 0 0 0-1.385-3.168l-2.306 1.945c.011.018.015.03.027.048.05.08.094.163.14.246.08.15.47 1.136.47 1.136-.003.018-.014.03-.013.054M9.858 2.963l.393.014.52-2.444.527-.366c-.195-.036-.39-.075-.59-.098l-.513-.025C10.123-.02 9.982.02 9.882.007c-.114-.014-.233-.002-.35-.002-.02 0-.038.004-.058.004L9.423.007v.006a8.821 8.821 0 0 0-2.752.52l.47 1.238zM19.53 9.003l-1.379 1.491-1.668-.117c-.025.223-.199 1.05-.199 1.05s-.37.645-.256.792c.081.107.869.386.99.32.353-.196.75-.151 1.131-.195.166-.018.31-.048.36-.207.074-.237.278-.316.526-.336.23-.02.325-.126.368-.326.18-.82.214-1.643.127-2.472M14.188 7.677l-.012-.02a5.662 5.662 0 0 0-.319-.561c-.101-.156-.163-.25-.22-.289-.839-1.158-1.892-1.921-3.065-2.186-.324.823-.899 2.138-.899 2.138l2.224 2.177-2.005 3.033.472-2.67S8.48 7.78 7.738 7.214c.205-.76.437-1.718.651-2.532a4.22 4.22 0 0 0-1.764.987l-.071.057a.503.503 0 0 0-.11.12c-1.165 1.194-2.117 2.69-2.11 5.319.125 1.014.45 1.89.992 2.68.052.073.117.136.18.2.12.121.181.108.338-.028.405-.349.405-.349.805-.615.564-.426.854-.865 1.042-.368.4 1.059.905 1.515 1.338 2.525.053.125.148.22.273.27.025.039.075.042.137.038.216.035.434-.045.538-.225.375-.655 1.355-1.497 1.678-2.022.197-.32.793-1.156.99-.898.456.594 1.278 1.602 1.46 1.64.242.05.316-.052.426-.3.406-.912.497-2.486.47-2.745-.14-1.284-.22-2.567-.813-3.64" style="fill:#000;fill-opacity:1;fill-rule:nonzero;stroke:none;stroke-width:.703751"/></svg>